#!OML:ASF E:\EmotionMaleHayes\Project 1\Capture day 1\Session 1\Male1.ASF
:FULLY-SPECIFIED
:DEGREES
471
root 28.2927 16.7388 0.352184 763.04 94.9537 768.831
lowerback 6.07578 0.118563 1.82587
upperback 3.45657 0.373856 2.3591
thorax 0.147028 0.239047 1.37811
lowerneck -22.6796 -0.193124 2.91138
upperneck 34.2284 -1.09359 0.957509
head 15.9896 0.368603 -0.229166
rclavicle -4.96962e-015 -4.77083e-015
rhumerus -32.0877 0.880279 -85.2818
rradius 33.9606
rwrist 0.699288
rhand -13.0191 -29.2855
rfingers 7.12502
rthumb 13.0748 -58.8557
lclavicle -4.96962e-015 -4.77083e-015
lhumerus -33.6123 -6.12469 90.679
lradius 21.8386
lwrist -16.2528
lhand -10.7566 -26.9196
lfingers 7.12502
lthumb 15.2549 2.49786
rfemur -3.49787 -9.72803 26.4198
rtibia 18.118
rfoot -12.7441 5.8381
rtoes 22.3159
lfemur 1.47078 4.50175 -13.3619
ltibia 62.5573
lfoot 0.911941 -1.39635
ltoes -20.9001
472
root 28.4061 16.7385 0.354758 767.384 95.151 773.307
lowerback 6.24122 0.258235 2.3126
upperback 3.54769 0.595516 2.39878
thorax 0.151623 0.359554 1.13272
lowerneck -22.6577 -0.287933 2.89763
upperneck 34.151 -1.25269 1.01749
head 15.9456 0.307897 -0.233146
rclavicle 2.48481e-016 1.15295e-014
rhumerus -31.438 1.46103 -85.5149
rradius 34.6105
rwrist 0.377293
rhand -13.1374 -29.5292
rfingers 7.12502
rthumb 12.9607 -59.1067
lclavicle 2.48481e-016 1.15295e-014
lhumerus -33.7775 -5.14109 89.9511
lradius 20.9881
lwrist -18.6041
lhand -10.1849 -27.207
lfingers 7.12502
lthumb 15.8056 2.16781
rfemur -2.46702 -9.62011 26.8503
rtibia 17.3423
rfoot -12.8553 5.89308
rtoes 22.4831
lfemur -0.120477 4.90108 -12.7075
ltibia 64.3698
lfoot 0.0259586 -0.750828
ltoes -18.5704
473
root 28.5223 16.7421 0.3576 769.471 95.2186 775.493
lowerback 6.37682 0.420121 2.62252
upperback 3.60228 0.833414 2.3254
thorax 0.137794 0.484774 0.868551
lowerneck -22.4853 -0.430495 2.84682
upperneck 33.9873 -1.50283 1.19473
head 15.8259 0.220021 -0.198348
rclavicle -5.86415e-015 -1.80894e-014
rhumerus -30.8882 1.55932 -85.6502
rradius 35.354
rwrist 0.366983
rhand -13.2626 -29.3951
rfingers 7.12502
rthumb 12.84 -58.9801
lclavicle -5.86415e-015 -1.80894e-014
lhumerus -33.9445 -4.22072 89.1362
lradius 20.1174
lwrist -21.0859
lhand -9.51687 -27.1383
lfingers 7.12502
lthumb 16.4489 2.18432
rfemur -1.56514 -9.68511 26.9827
rtibia 16.6511
rfoot -12.803 6.12244
rtoes 23.1909
lfemur -1.66793 5.3689 -12.3647
ltibia 66.0006
lfoot -0.758798 0.00375895
ltoes -18.5778
474
root 28.6417 16.7468 0.359316 769.329 95.1165 775.426
lowerback 6.48345 0.542116 2.61036
upperback 3.65665 0.997952 2.22924
thorax 0.136811 0.568308 0.765582
lowerneck -22.4126 -0.496002 2.77621
upperneck 33.9272 -1.62935 1.36502
head 15.7823 0.183064 -0.137973
rclavicle -9.49197e-015 1.74931e-014
rhumerus -30.2193 1.91299 -85.7698
rradius 35.8421
rwrist 0.279087
rhand -13.3671 -29.3553
rfingers 7.12502
rthumb 12.7393 -58.9466
lclavicle -9.49197e-015 1.74931e-014
lhumerus -34.0567 -2.94581 88.2359
lradius 19.1721
lwrist -23.7045
lhand -9.15892 -27.0482
lfingers 7.12502
lthumb 16.7935 2.24558
rfemur -0.639141 -9.77614 26.819
rtibia 16.0602
rfoot -12.9794 6.24898
rtoes 22.9192
lfemur -3.23049 5.6769 -12.3857
ltibia 67.379
lfoot -1.86526 0.790349
ltoes -17.11
475
root 28.7596 16.7462 0.357441 770.343 95.1009 776.513
lowerback 6.47351 0.637582 2.71408
upperback 3.76703 1.12988 2.19452
thorax 0.259727 0.639255 0.66525
lowerneck -22.2485 -0.579093 2.65943
upperneck 33.7983 -1.75303 1.51812
head 15.6845 0.135328 -0.077141
rclavicle 1.00386e-014 1.86858e-014
rhumerus -29.4003 2.64444 -85.9292
rradius 36.1855
rwrist -0.145299
rhand -13.4314 -29.6491
rfingers 7.12502
rthumb 12.6773 -59.2443
lclavicle 1.00386e-014 1.86858e-014
lhumerus -34.0631 -1.2252 87.1692
lradius 18.1779
lwrist -26.4357
lhand -8.90646 -27.0471
lfingers 7.12502
lthumb 17.0365 2.22584
rfemur 0.136438 -9.71396 26.8137
rtibia 15.6725
rfoot -13.2366 6.26318
rtoes 22.103
lfemur -4.80203 5.86577 -12.2899
ltibia 68.5051
lfoot -2.63189 1.43137
ltoes -13.2043
476
root 28.8755 16.7432 0.353601 771.159 94.9967 777.33
lowerback 6.3579 0.749171 2.72196
upperback 3.88818 1.27135 2.11516
thorax 0.451895 0.714086 0.574483
lowerneck -22.1224 -0.692993 2.6735
upperneck 33.65 -1.94212 1.56675
head 15.5837 0.0603083 -0.0969065
rclavicle -1.01256e-014 -7.7526e-015
rhumerus -28.5953 3.34841 -86.1153
rradius 36.6481
rwrist -0.589201
rhand -13.8323 -29.6167
rfingers 7.12502
rthumb 12.2908 -59.2355
lclavicle -1.01256e-014 -7.7526e-015
lhumerus -34.0256 0.66899 85.9373
lradius 17.2426
lwrist -29.26
lhand -9.13539 -27.6259
lfingers 7.12502
lthumb 16.8161 1.66596
rfemur 0.779894 -9.77615 26.685
rtibia 15.3692
rfoot -13.5098 6.59045
rtoes 21.4887
lfemur -6.3675 6.16004 -12.3437
ltibia 69.4409
lfoot -3.49526 1.79777
ltoes -11.5964
477
root 28.9867 16.7372 0.355748 772.802 94.9657 778.994
lowerback 6.42482 0.880848 2.82568
upperback 3.91881 1.45376 2.02347
thorax 0.453332 0.808293 0.410942
lowerneck -22.0358 -0.737484 2.82605
upperneck 33.6274 -2.06169 1.56865
head 15.5511 0.0316056 -0.145171
rclavicle -7.95139e-016 5.96354e-015
rhumerus -28.0218 3.98748 -86.3215
rradius 37.1157
rwrist -0.874147
rhand -14.4774 -29.0773
rfingers 7.12502
rthumb 11.6687 -58.7324
lclavicle -7.95139e-016 5.96354e-015
lhumerus -34.2161 2.39454 84.6429
lradius 16.5314
lwrist -31.8944
lhand -8.9065 -27.5791
lfingers 7.12502
lthumb 17.0364 1.69388
rfemur 1.46504 -9.54303 26.7507
rtibia 14.9825
rfoot -13.7797 6.64107
rtoes 21.6454
lfemur -7.91036 6.57702 -12.2345
ltibia 70.2502
lfoot -4.25452 1.94191
ltoes -12.0541
